<mxfile host="app.diagrams.net" modified="2023-10-28T18:46:21.566Z" agent="Mozilla/5.0 (Windows NT 10.0; Win64; x64) AppleWebKit/537.36 (KHTML, like Gecko) Chrome/116.0.5845.931 YaBrowser/23.9.3.931 Yowser/2.5 Safari/537.36" etag="bG6Tvcg6dNK5-iAExNEs" version="22.0.8" type="github">
  <diagram id="C5RBs43oDa-KdzZeNtuy" name="Page-1">
    <mxGraphModel dx="3173" dy="1345" grid="1" gridSize="10" guides="1" tooltips="1" connect="1" arrows="1" fold="1" page="1" pageScale="1" pageWidth="827" pageHeight="1169" math="0" shadow="0">
      <root>
        <mxCell id="WIyWlLk6GJQsqaUBKTNV-0" />
        <mxCell id="WIyWlLk6GJQsqaUBKTNV-1" parent="WIyWlLk6GJQsqaUBKTNV-0" />
        <mxCell id="3tcJF0z9WSJNjCc7v_Xt-2" value="" style="edgeStyle=orthogonalEdgeStyle;rounded=0;orthogonalLoop=1;jettySize=auto;html=1;" edge="1" parent="WIyWlLk6GJQsqaUBKTNV-1" source="3tcJF0z9WSJNjCc7v_Xt-3" target="3tcJF0z9WSJNjCc7v_Xt-6">
          <mxGeometry relative="1" as="geometry" />
        </mxCell>
        <mxCell id="3tcJF0z9WSJNjCc7v_Xt-3" value="Start" style="ellipse;whiteSpace=wrap;html=1;" vertex="1" parent="WIyWlLk6GJQsqaUBKTNV-1">
          <mxGeometry x="354" y="40" width="120" height="80" as="geometry" />
        </mxCell>
        <mxCell id="3tcJF0z9WSJNjCc7v_Xt-4" value="Finish" style="ellipse;whiteSpace=wrap;html=1;" vertex="1" parent="WIyWlLk6GJQsqaUBKTNV-1">
          <mxGeometry x="354" y="1280" width="120" height="80" as="geometry" />
        </mxCell>
        <mxCell id="3tcJF0z9WSJNjCc7v_Xt-5" value="" style="edgeStyle=orthogonalEdgeStyle;rounded=0;orthogonalLoop=1;jettySize=auto;html=1;" edge="1" parent="WIyWlLk6GJQsqaUBKTNV-1" source="3tcJF0z9WSJNjCc7v_Xt-6" target="3tcJF0z9WSJNjCc7v_Xt-8">
          <mxGeometry relative="1" as="geometry" />
        </mxCell>
        <mxCell id="3tcJF0z9WSJNjCc7v_Xt-6" value="array[]&lt;br&gt;min_idx&lt;br&gt;max_idx&lt;br&gt;size&lt;br&gt;maxx" style="rounded=0;whiteSpace=wrap;html=1;" vertex="1" parent="WIyWlLk6GJQsqaUBKTNV-1">
          <mxGeometry x="354" y="160" width="120" height="70" as="geometry" />
        </mxCell>
        <mxCell id="3tcJF0z9WSJNjCc7v_Xt-7" value="" style="edgeStyle=orthogonalEdgeStyle;rounded=0;orthogonalLoop=1;jettySize=auto;html=1;" edge="1" parent="WIyWlLk6GJQsqaUBKTNV-1" source="3tcJF0z9WSJNjCc7v_Xt-8" target="3tcJF0z9WSJNjCc7v_Xt-10">
          <mxGeometry relative="1" as="geometry" />
        </mxCell>
        <mxCell id="3tcJF0z9WSJNjCc7v_Xt-8" value="array[]" style="shape=parallelogram;perimeter=parallelogramPerimeter;whiteSpace=wrap;html=1;fixedSize=1;" vertex="1" parent="WIyWlLk6GJQsqaUBKTNV-1">
          <mxGeometry x="276" y="260" width="276" height="60" as="geometry" />
        </mxCell>
        <mxCell id="3tcJF0z9WSJNjCc7v_Xt-9" value="" style="edgeStyle=orthogonalEdgeStyle;rounded=0;orthogonalLoop=1;jettySize=auto;html=1;" edge="1" parent="WIyWlLk6GJQsqaUBKTNV-1" source="3tcJF0z9WSJNjCc7v_Xt-10" target="3tcJF0z9WSJNjCc7v_Xt-13">
          <mxGeometry relative="1" as="geometry" />
        </mxCell>
        <mxCell id="3tcJF0z9WSJNjCc7v_Xt-10" value="size = length(array[])&lt;br&gt;max_idx = 0&lt;br&gt;min_idx = 0" style="rounded=0;whiteSpace=wrap;html=1;" vertex="1" parent="WIyWlLk6GJQsqaUBKTNV-1">
          <mxGeometry x="354" y="350" width="120" height="60" as="geometry" />
        </mxCell>
        <mxCell id="3tcJF0z9WSJNjCc7v_Xt-11" value="" style="edgeStyle=orthogonalEdgeStyle;rounded=0;orthogonalLoop=1;jettySize=auto;html=1;" edge="1" parent="WIyWlLk6GJQsqaUBKTNV-1" source="3tcJF0z9WSJNjCc7v_Xt-13" target="3tcJF0z9WSJNjCc7v_Xt-18">
          <mxGeometry relative="1" as="geometry" />
        </mxCell>
        <mxCell id="3tcJF0z9WSJNjCc7v_Xt-12" style="edgeStyle=orthogonalEdgeStyle;rounded=0;orthogonalLoop=1;jettySize=auto;html=1;entryX=0.5;entryY=0;entryDx=0;entryDy=0;exitX=0;exitY=0.5;exitDx=0;exitDy=0;" edge="1" parent="WIyWlLk6GJQsqaUBKTNV-1" source="3tcJF0z9WSJNjCc7v_Xt-13" target="3tcJF0z9WSJNjCc7v_Xt-29">
          <mxGeometry relative="1" as="geometry">
            <Array as="points">
              <mxPoint x="210" y="480" />
              <mxPoint x="210" y="870" />
              <mxPoint x="414" y="870" />
            </Array>
            <mxPoint x="414" y="900" as="targetPoint" />
          </mxGeometry>
        </mxCell>
        <mxCell id="3tcJF0z9WSJNjCc7v_Xt-13" value="for (i = 0; i &amp;lt; size; i++)" style="shape=hexagon;perimeter=hexagonPerimeter2;whiteSpace=wrap;html=1;fixedSize=1;" vertex="1" parent="WIyWlLk6GJQsqaUBKTNV-1">
          <mxGeometry x="341" y="440" width="146" height="80" as="geometry" />
        </mxCell>
        <mxCell id="3tcJF0z9WSJNjCc7v_Xt-14" value="" style="edgeStyle=orthogonalEdgeStyle;rounded=0;orthogonalLoop=1;jettySize=auto;html=1;" edge="1" parent="WIyWlLk6GJQsqaUBKTNV-1" source="3tcJF0z9WSJNjCc7v_Xt-18" target="3tcJF0z9WSJNjCc7v_Xt-20">
          <mxGeometry relative="1" as="geometry" />
        </mxCell>
        <mxCell id="3tcJF0z9WSJNjCc7v_Xt-15" value="yes" style="edgeLabel;html=1;align=center;verticalAlign=middle;resizable=0;points=[];" vertex="1" connectable="0" parent="3tcJF0z9WSJNjCc7v_Xt-14">
          <mxGeometry x="-0.2877" y="1" relative="1" as="geometry">
            <mxPoint as="offset" />
          </mxGeometry>
        </mxCell>
        <mxCell id="3tcJF0z9WSJNjCc7v_Xt-16" style="edgeStyle=orthogonalEdgeStyle;rounded=0;orthogonalLoop=1;jettySize=auto;html=1;" edge="1" parent="WIyWlLk6GJQsqaUBKTNV-1" source="3tcJF0z9WSJNjCc7v_Xt-18" target="3tcJF0z9WSJNjCc7v_Xt-27">
          <mxGeometry relative="1" as="geometry" />
        </mxCell>
        <mxCell id="3tcJF0z9WSJNjCc7v_Xt-17" value="no" style="edgeLabel;html=1;align=center;verticalAlign=middle;resizable=0;points=[];" vertex="1" connectable="0" parent="3tcJF0z9WSJNjCc7v_Xt-16">
          <mxGeometry x="-0.1773" y="1" relative="1" as="geometry">
            <mxPoint as="offset" />
          </mxGeometry>
        </mxCell>
        <mxCell id="3tcJF0z9WSJNjCc7v_Xt-18" value="if min_idx &amp;gt; array [i]" style="rhombus;whiteSpace=wrap;html=1;" vertex="1" parent="WIyWlLk6GJQsqaUBKTNV-1">
          <mxGeometry x="331" y="550" width="166" height="100" as="geometry" />
        </mxCell>
        <mxCell id="3tcJF0z9WSJNjCc7v_Xt-19" style="edgeStyle=orthogonalEdgeStyle;rounded=0;orthogonalLoop=1;jettySize=auto;html=1;entryX=1;entryY=0.5;entryDx=0;entryDy=0;" edge="1" parent="WIyWlLk6GJQsqaUBKTNV-1" source="3tcJF0z9WSJNjCc7v_Xt-20" target="3tcJF0z9WSJNjCc7v_Xt-13">
          <mxGeometry relative="1" as="geometry">
            <Array as="points">
              <mxPoint x="630" y="480" />
            </Array>
          </mxGeometry>
        </mxCell>
        <mxCell id="3tcJF0z9WSJNjCc7v_Xt-20" value="min_idx = i" style="rounded=0;whiteSpace=wrap;html=1;" vertex="1" parent="WIyWlLk6GJQsqaUBKTNV-1">
          <mxGeometry x="570" y="570" width="120" height="60" as="geometry" />
        </mxCell>
        <mxCell id="3tcJF0z9WSJNjCc7v_Xt-21" style="edgeStyle=orthogonalEdgeStyle;rounded=0;orthogonalLoop=1;jettySize=auto;html=1;entryX=1;entryY=0.5;entryDx=0;entryDy=0;" edge="1" parent="WIyWlLk6GJQsqaUBKTNV-1" source="3tcJF0z9WSJNjCc7v_Xt-22" target="3tcJF0z9WSJNjCc7v_Xt-13">
          <mxGeometry relative="1" as="geometry">
            <Array as="points">
              <mxPoint x="740" y="790" />
              <mxPoint x="740" y="480" />
            </Array>
          </mxGeometry>
        </mxCell>
        <mxCell id="3tcJF0z9WSJNjCc7v_Xt-22" value="max_idx = i+1" style="rounded=0;whiteSpace=wrap;html=1;" vertex="1" parent="WIyWlLk6GJQsqaUBKTNV-1">
          <mxGeometry x="570" y="760" width="120" height="60" as="geometry" />
        </mxCell>
        <mxCell id="3tcJF0z9WSJNjCc7v_Xt-25" style="edgeStyle=orthogonalEdgeStyle;rounded=0;orthogonalLoop=1;jettySize=auto;html=1;entryX=0;entryY=0.5;entryDx=0;entryDy=0;" edge="1" parent="WIyWlLk6GJQsqaUBKTNV-1" source="3tcJF0z9WSJNjCc7v_Xt-27" target="3tcJF0z9WSJNjCc7v_Xt-22">
          <mxGeometry relative="1" as="geometry" />
        </mxCell>
        <mxCell id="3tcJF0z9WSJNjCc7v_Xt-26" value="yes" style="edgeLabel;html=1;align=center;verticalAlign=middle;resizable=0;points=[];" vertex="1" connectable="0" parent="3tcJF0z9WSJNjCc7v_Xt-25">
          <mxGeometry x="-0.0652" relative="1" as="geometry">
            <mxPoint as="offset" />
          </mxGeometry>
        </mxCell>
        <mxCell id="3tcJF0z9WSJNjCc7v_Xt-27" value="if max_idx &amp;lt; array [i]" style="rhombus;whiteSpace=wrap;html=1;" vertex="1" parent="WIyWlLk6GJQsqaUBKTNV-1">
          <mxGeometry x="330" y="740" width="166" height="100" as="geometry" />
        </mxCell>
        <mxCell id="3tcJF0z9WSJNjCc7v_Xt-32" style="edgeStyle=orthogonalEdgeStyle;rounded=0;orthogonalLoop=1;jettySize=auto;html=1;entryX=0.5;entryY=0;entryDx=0;entryDy=0;" edge="1" parent="WIyWlLk6GJQsqaUBKTNV-1" source="3tcJF0z9WSJNjCc7v_Xt-29" target="3tcJF0z9WSJNjCc7v_Xt-30">
          <mxGeometry relative="1" as="geometry" />
        </mxCell>
        <mxCell id="3tcJF0z9WSJNjCc7v_Xt-36" style="edgeStyle=orthogonalEdgeStyle;rounded=0;orthogonalLoop=1;jettySize=auto;html=1;entryX=0.5;entryY=0;entryDx=0;entryDy=0;exitX=0;exitY=0.5;exitDx=0;exitDy=0;" edge="1" parent="WIyWlLk6GJQsqaUBKTNV-1" source="3tcJF0z9WSJNjCc7v_Xt-29" target="3tcJF0z9WSJNjCc7v_Xt-31">
          <mxGeometry relative="1" as="geometry">
            <Array as="points">
              <mxPoint x="210" y="970" />
              <mxPoint x="210" y="1140" />
              <mxPoint x="414" y="1140" />
            </Array>
          </mxGeometry>
        </mxCell>
        <mxCell id="3tcJF0z9WSJNjCc7v_Xt-29" value="for (i = min_idx + 1; i &amp;lt; max_idx; i++)" style="shape=hexagon;perimeter=hexagonPerimeter2;whiteSpace=wrap;html=1;fixedSize=1;" vertex="1" parent="WIyWlLk6GJQsqaUBKTNV-1">
          <mxGeometry x="289.5" y="930" width="249" height="80" as="geometry" />
        </mxCell>
        <mxCell id="3tcJF0z9WSJNjCc7v_Xt-35" style="edgeStyle=orthogonalEdgeStyle;rounded=0;orthogonalLoop=1;jettySize=auto;html=1;entryX=1;entryY=0.5;entryDx=0;entryDy=0;exitX=1;exitY=0.5;exitDx=0;exitDy=0;" edge="1" parent="WIyWlLk6GJQsqaUBKTNV-1" source="3tcJF0z9WSJNjCc7v_Xt-30" target="3tcJF0z9WSJNjCc7v_Xt-29">
          <mxGeometry relative="1" as="geometry">
            <Array as="points">
              <mxPoint x="740" y="1090" />
              <mxPoint x="740" y="970" />
            </Array>
          </mxGeometry>
        </mxCell>
        <mxCell id="3tcJF0z9WSJNjCc7v_Xt-30" value="summ = summ + array[i]" style="rounded=0;whiteSpace=wrap;html=1;" vertex="1" parent="WIyWlLk6GJQsqaUBKTNV-1">
          <mxGeometry x="331" y="1060" width="166" height="60" as="geometry" />
        </mxCell>
        <mxCell id="3tcJF0z9WSJNjCc7v_Xt-34" style="edgeStyle=orthogonalEdgeStyle;rounded=0;orthogonalLoop=1;jettySize=auto;html=1;entryX=0.5;entryY=0;entryDx=0;entryDy=0;" edge="1" parent="WIyWlLk6GJQsqaUBKTNV-1" source="3tcJF0z9WSJNjCc7v_Xt-31" target="3tcJF0z9WSJNjCc7v_Xt-4">
          <mxGeometry relative="1" as="geometry" />
        </mxCell>
        <mxCell id="3tcJF0z9WSJNjCc7v_Xt-31" value="summ" style="shape=document;whiteSpace=wrap;html=1;boundedLbl=1;" vertex="1" parent="WIyWlLk6GJQsqaUBKTNV-1">
          <mxGeometry x="354" y="1170" width="120" height="80" as="geometry" />
        </mxCell>
      </root>
    </mxGraphModel>
  </diagram>
</mxfile>
